<svg xmlns="http://www.w3.org/2000/svg" viewBox="0 0 128 128">
  <!-- Clock face -->
  <circle cx="64" cy="64" r="58" fill="#1a1a2e" stroke="#6366f1" stroke-width="4"/>
  <!-- 16 glyph block markers around the rim -->
  <g stroke="#6366f1" stroke-width="2.5" stroke-linecap="round">
    <line x1="64" y1="10" x2="64" y2="22"/>
    <line x1="85.1" y1="12.7" x2="81.8" y2="24.1"/>
    <line x1="102.3" y1="25.7" x2="95.5" y2="34.5"/>
    <line x1="112.3" y1="46" x2="101.9" y2="51.8"/>
    <line x1="118" y1="64" x2="106" y2="64"/>
    <line x1="112.3" y1="82" x2="101.9" y2="76.2"/>
    <line x1="102.3" y1="102.3" x2="95.5" y2="93.5"/>
    <line x1="85.1" y1="115.3" x2="81.8" y2="103.9"/>
    <line x1="64" y1="118" x2="64" y2="106"/>
    <line x1="42.9" y1="115.3" x2="46.2" y2="103.9"/>
    <line x1="25.7" y1="102.3" x2="32.5" y2="93.5"/>
    <line x1="15.7" y1="82" x2="26.1" y2="76.2"/>
    <line x1="10" y1="64" x2="22" y2="64"/>
    <line x1="15.7" y1="46" x2="26.1" y2="51.8"/>
    <line x1="25.7" y1="25.7" x2="32.5" y2="34.5"/>
    <line x1="42.9" y1="12.7" x2="46.2" y2="24.1"/>
  </g>
  <!-- Central glyph symbol - stylized G -->
  <text x="64" y="78" text-anchor="middle" font-family="Arial, sans-serif" font-weight="700" font-size="52" fill="#c7d2fe">G</text>
  <!-- Accent dot -->
  <circle cx="64" cy="64" r="3" fill="#06b6d4"/>
</svg>
